<svg width="120" height="120" viewBox="0 0 120 120" fill="none" xmlns="http://www.w3.org/2000/svg">
<path d="M60 14C60 39.4051 39.4051 60 14 60C39.4051 60 60 80.5949 60 106C60 80.5949 80.5949 60 106 60C80.5949 60 60 39.4051 60 14Z" fill="#FFD80A"/>
<path fill-rule="evenodd" clip-rule="evenodd" d="M32.2647 63.7687C26.6658 61.344 20.4898 60 14 60C20.4898 60 26.6658 58.656 32.2647 56.2313C42.9843 51.5888 51.5888 42.9843 56.2313 32.2647C58.656 26.6658 60 20.4898 60 14C60 20.4898 61.344 26.6658 63.7687 32.2647C68.4112 42.9843 77.0157 51.5888 87.7353 56.2313C93.3342 58.656 99.5102 60 106 60C99.5102 60 93.3342 61.344 87.7353 63.7687C77.0157 68.4112 68.4112 77.0157 63.7687 87.7353C61.344 93.3342 60 99.5102 60 106C60 99.5102 58.656 93.3342 56.2313 87.7353C51.5888 77.0157 42.9843 68.4112 32.2647 63.7687ZM53 106H60H67C67 84.4609 84.4609 67 106 67V60V53C84.4609 53 67 35.5391 67 14H60H53C53 35.5391 35.5391 53 14 53V60V67C35.5391 67 53 84.4609 53 106Z" fill="white"/>
<path d="M94 14C94 21.732 87.732 28 80 28C87.732 28 94 34.268 94 42C94 34.268 100.268 28 108 28C100.268 28 94 21.732 94 14Z" fill="#F9AC81"/>
<path fill-rule="evenodd" clip-rule="evenodd" d="M89.6221 31.8307C87.1135 29.4562 83.7268 28 80 28C83.7268 28 87.1135 26.5438 89.6221 24.1693C89.8095 23.992 89.992 23.8095 90.1693 23.6221C92.5438 21.1135 94 17.7268 94 14C94 17.7268 95.4562 21.1135 97.8307 23.6221C98.008 23.8095 98.1905 23.992 98.3779 24.1693C100.886 26.5438 104.273 28 108 28C104.273 28 100.886 29.4562 98.3779 31.8307C98.1905 32.008 98.008 32.1905 97.8307 32.3779C95.4562 34.8865 94 38.2732 94 42C94 38.2732 92.5438 34.8865 90.1693 32.3779C89.992 32.1905 89.8095 32.008 89.6221 31.8307ZM101 42H94H87C87 38.134 83.866 35 80 35V28V21C83.866 21 87 17.866 87 14H94H101C101 17.866 104.134 21 108 21V28V35C104.134 35 101 38.134 101 42Z" fill="white"/>
<path d="M41.5 81C41.5 86.799 36.799 91.5 31 91.5C36.799 91.5 41.5 96.201 41.5 102C41.5 96.201 46.201 91.5 52 91.5C46.201 91.5 41.5 86.799 41.5 81Z" fill="#FD8EA9"/>
<path fill-rule="evenodd" clip-rule="evenodd" d="M36.8314 93.2669C37.9784 94.0343 38.9657 95.0216 39.7331 96.1686C40.8492 97.8366 41.5 99.8423 41.5 102H34.5C34.5 100.067 32.933 98.5 31 98.5V91.5C33.1577 91.5 35.1634 92.1508 36.8314 93.2669ZM31 84.5C32.933 84.5 34.5 82.933 34.5 81H41.5C41.5 83.1577 40.8492 85.1634 39.7331 86.8314C38.9657 87.9784 37.9784 88.9657 36.8314 89.7331C35.1634 90.8492 33.1577 91.5 31 91.5V84.5ZM43.2669 96.1686C42.1508 97.8366 41.5 99.8423 41.5 102H48.5C48.5 100.067 50.067 98.5 52 98.5V91.5V84.5C50.067 84.5 48.5 82.933 48.5 81H41.5C41.5 83.1577 42.1508 85.1634 43.2669 86.8314C44.0343 87.9784 45.0216 88.9657 46.1686 89.7331C47.8366 90.8492 49.8423 91.5 52 91.5C49.8423 91.5 47.8366 92.1508 46.1686 93.2669C45.0216 94.0343 44.0343 95.0216 43.2669 96.1686Z" fill="white"/>
</svg>
