<svg width="120" height="120" viewBox="0 0 120 120" fill="none" xmlns="http://www.w3.org/2000/svg">
<path fill-rule="evenodd" clip-rule="evenodd" d="M69.6242 38.7895C71.0183 33.0291 72.7862 27.209 74.7127 22.1747C77.8924 13.8653 81.2338 8.35383 85.2953 5.42565C87.4622 3.86344 89.78 3.07425 92.1648 2.97397C94.4604 2.87742 96.5291 3.43129 98.241 4.08639C99.953 4.74148 101.863 5.7101 103.508 7.31446C105.216 8.98113 106.415 11.116 106.986 13.7257C108.055 18.6172 106.863 24.9514 103.684 33.2608C101.266 39.5783 97.8316 46.6637 94.1745 52.9834C97.9817 58.3064 100.099 64.9031 100.099 72.5714C100.099 83.6509 95.696 94.6414 88.6477 102.884C81.592 111.136 71.5432 117 60.0988 117C48.6543 117 38.6055 111.136 31.5498 102.884C24.5015 94.6414 20.0988 83.6509 20.0988 72.5714C20.0988 65.2191 22.0448 58.845 25.5719 53.632C21.7725 47.1485 18.1843 39.7925 15.6849 33.2608C12.5052 24.9514 11.3137 18.6172 12.383 13.7257C12.9534 11.116 14.1523 8.98113 15.8609 7.31446C17.5057 5.7101 19.4157 4.74149 21.1276 4.08639C22.8395 3.43129 24.9082 2.87742 27.2038 2.97397C29.5886 3.07425 31.9064 3.86344 34.0733 5.42565C38.1349 8.35382 41.4763 13.8653 44.656 22.1747C46.5981 27.2501 48.3795 33.1249 49.779 38.9327C53.0989 38.3069 56.5612 38 60.0988 38C63.3558 38 66.5483 38.2601 69.6242 38.7895Z" fill="#FD8EA9"/>
<path d="M99.014 31.4739C92.7899 47.7392 79.3356 69.7327 73.9145 67.6582C68.4934 65.5838 73.1583 40.227 79.3824 23.9616C85.6066 7.69629 91.033 6.6817 96.4541 8.75615C101.875 10.8306 105.238 15.2085 99.014 31.4739Z" fill="white"/>
<path d="M20.3547 31.4739C26.5788 47.7392 40.033 69.7327 45.4541 67.6582C50.8752 65.5838 46.2103 40.227 39.9862 23.9616C33.7621 7.69629 28.3357 6.6817 22.9145 8.75615C17.4934 10.8306 14.1305 15.2085 20.3547 31.4739Z" fill="white"/>
<path d="M24.5731 30.3251C28.4112 40.3552 36.7078 53.9174 40.0507 52.6382C43.3936 51.359 40.517 35.7227 36.6789 25.6927C32.8408 15.6627 29.4946 15.037 26.1517 16.3162C22.8087 17.5954 20.735 20.2951 24.5731 30.3251Z" fill="#EFF4F7"/>
<path d="M94.6292 30.3251C90.7911 40.3552 82.4946 53.9174 79.1517 52.6382C75.8087 51.359 78.6853 35.7227 82.5234 25.6927C86.3615 15.6627 89.7078 15.037 93.0507 16.3162C96.3936 17.5954 98.4674 20.2951 94.6292 30.3251Z" fill="#EFF4F7"/>
<path d="M95.0988 72.5714C95.0988 92.1696 79.4287 112 60.0988 112C40.7688 112 25.0988 92.1696 25.0988 72.5714C25.0988 52.9732 40.7688 43 60.0988 43C79.4287 43 95.0988 52.9732 95.0988 72.5714Z" fill="white"/>
<path d="M56.0988 94.2273C56.0988 92.239 57.8896 92 60.0988 92C62.3079 92 64.0988 92.239 64.0988 94.2273C64.0988 96.2155 62.3079 99 60.0987 99C57.8896 99 56.0988 96.2155 56.0988 94.2273Z" fill="#94A4AB"/>
<path fill-rule="evenodd" clip-rule="evenodd" d="M43.0988 76C40.8896 76 39.0988 77.7909 39.0988 80H35.0988C35.0988 75.5817 38.6805 72 43.0988 72C47.517 72 51.0988 75.5817 51.0988 80H47.0988C47.0988 77.7909 45.3079 76 43.0988 76Z" fill="#FFD80A"/>
<circle cx="77.0988" cy="78" r="7" fill="#FFD80A"/>
</svg>
