<svg width="120" height="120" viewBox="0 0 120 120" fill="none" xmlns="http://www.w3.org/2000/svg">
<path d="M60 24C27.9675 24 2 49.9518 2 81.9649C2 83.6411 3.35885 85 5.03509 85H114.965C116.641 85 118 83.6411 118 81.9649C118 49.9518 92.0325 24 60 24Z" fill="white"/>
<path d="M107 82C107 56.0426 85.9574 35 60 35C34.0426 35 13 56.0426 13 82" stroke="#FD8EA9" stroke-width="16"/>
<path d="M90 82C90 65.4315 76.5685 52 60 52C43.4315 52 30 65.4315 30 82" stroke="#F9AC81" stroke-width="16"/>
<path d="M73 82C73 74.8203 67.1797 69 60 69C52.8203 69 47 74.8203 47 82" stroke="#78CEFF" stroke-width="16"/>
</svg>
