<svg width="120" height="120" viewBox="0 0 120 120" fill="none" xmlns="http://www.w3.org/2000/svg">
<path fill-rule="evenodd" clip-rule="evenodd" d="M62 32C62 17.0883 74.0883 5 89 5C103.912 5 116 17.0883 116 32V83.8654C116 88.9103 111.91 93 106.865 93H102V103.5C102 110.956 95.9558 117 88.5 117C81.0442 117 75 110.956 75 103.5V93H71.1346C66.0897 93 62 88.9103 62 83.8654V32ZM71.1346 86C69.9557 86 69 85.0443 69 83.8654V32C69 20.9543 77.9543 12 89 12C100.046 12 109 20.9543 109 32V83.8654C109 85.0443 108.044 86 106.865 86H95V103.5C95 107.09 92.0898 110 88.5 110C84.9102 110 82 107.09 82 103.5V86H71.1346Z" fill="white"/>
<rect x="82" y="48" width="13" height="62" rx="6.5" fill="#E5E5E5"/>
<path d="M69 32C69 20.9543 77.9543 12 89 12V12C100.046 12 109 20.9543 109 32V83.8654C109 85.0443 108.044 86 106.865 86H71.1346C69.9557 86 69 85.0443 69 83.8654V32Z" fill="#78CEFF"/>
<path d="M109 49V83.8654C109 85.0443 108.044 86 106.865 86H71.1346C69.9557 86 69 85.0443 69 83.8654V49H109Z" fill="#FFD80A"/>
<path fill-rule="evenodd" clip-rule="evenodd" d="M33 28C33 13.0883 45.0883 1 60 1C74.9117 1 87 13.0883 87 28V79.8654C87 84.9103 82.9103 89 77.8654 89H73V99.5C73 106.956 66.9558 113 59.5 113C52.0442 113 46 106.956 46 99.5V89H42.1346C37.0897 89 33 84.9103 33 79.8654V28ZM42.1346 82C40.9557 82 40 81.0443 40 79.8654V28C40 16.9543 48.9543 8 60 8C71.0457 8 80 16.9543 80 28V79.8654C80 81.0443 79.0443 82 77.8654 82H66V99.5C66 103.09 63.0898 106 59.5 106C55.9102 106 53 103.09 53 99.5V82H42.1346Z" fill="white"/>
<rect x="53" y="44" width="13" height="62" rx="6.5" fill="#E5E5E5"/>
<path d="M40 28C40 16.9543 48.9543 8 60 8V8C71.0457 8 80 16.9543 80 28V79.8654C80 81.0443 79.0443 82 77.8654 82H42.1346C40.9557 82 40 81.0443 40 79.8654V28Z" fill="#AD691A"/>
<path d="M80 65V79.8654C80 81.0443 79.0443 82 77.8654 82H42.1346C40.9557 82 40 81.0443 40 79.8654V65H80Z" fill="#FD8EA9"/>
<path fill-rule="evenodd" clip-rule="evenodd" d="M4 35C4 20.0883 16.0883 8 31 8C45.9117 8 58 20.0883 58 35V86.8654C58 91.9103 53.9103 96 48.8654 96H44V106.5C44 113.956 37.9558 120 30.5 120C23.0442 120 17 113.956 17 106.5V96H13.1346C8.08971 96 4 91.9103 4 86.8654V35ZM13.1346 89C11.9557 89 11 88.0443 11 86.8654V35C11 23.9543 19.9543 15 31 15C42.0457 15 51 23.9543 51 35V86.8654C51 88.0443 50.0443 89 48.8654 89H37V106.5C37 110.09 34.0898 113 30.5 113C26.9102 113 24 110.09 24 106.5V89H13.1346Z" fill="white"/>
<rect x="24" y="51" width="13" height="62" rx="6.5" fill="#E5E5E5"/>
<path d="M11 35C11 23.9543 19.9543 15 31 15V15C42.0457 15 51 23.9543 51 35V86.8654C51 88.0443 50.0443 89 48.8654 89H13.1346C11.9557 89 11 88.0443 11 86.8654V35Z" fill="#FD8EA9"/>
<path d="M51 60.5V86.8654C51 88.0443 50.0443 89 48.8654 89H13.1346C11.9557 89 11 88.0443 11 86.8654V60.5H51Z" fill="#F9AC81"/>
</svg>
