<svg width="120" height="120" viewBox="0 0 120 120" fill="none" xmlns="http://www.w3.org/2000/svg">
<path d="M24.2196 98.0293C34.4821 105.845 44.6163 96.4113 50.1564 88.1839C51.8203 85.713 54.6035 84.2532 57.3946 83.2121C62.8334 81.1835 66.695 74.961 56.1954 60.0293C39.3193 36.0292 22.4431 42.0292 16.2256 46.0292C10.0081 50.0292 9.11988 86.5293 24.2196 98.0293Z" fill="#DEC5FF" stroke="#6914D5" stroke-width="5"/>
<path d="M96.7804 98.0293C86.5179 105.845 76.3836 96.4113 70.8436 88.1839C69.1797 85.713 66.3964 84.2532 63.6054 83.2121C58.1666 81.1835 54.305 74.961 64.8046 60.0293C81.6807 36.0292 98.5569 42.0293 104.774 46.0293C110.992 50.0293 111.88 86.5293 96.7804 98.0293Z" fill="#DEC5FF" stroke="#6914D5" stroke-width="5"/>
<path d="M73.0465 76.6601C72.6799 80.7879 69.2218 83.9523 65.0779 83.9523L57.5143 83.9523C53.3703 83.9523 49.9123 80.7878 49.5456 76.6601L48.7463 67.6601C48.3306 62.9809 52.0172 58.9523 56.7149 58.9523L65.8772 58.9523C70.5749 58.9523 74.2615 62.9809 73.8459 67.6601L73.0465 76.6601Z" fill="#DEC5FF" stroke="#6914D5" stroke-width="5"/>
<path d="M24.2196 83.3785C34.4821 91.1944 44.6163 81.7605 50.1564 73.5331C51.8203 71.0622 54.6035 69.6024 57.3946 68.5614C62.8334 66.5327 66.695 60.3102 56.1954 45.3785C39.3193 21.3785 22.4431 27.3785 16.2256 31.3785C10.0081 35.3785 9.11988 71.8785 24.2196 83.3785Z" fill="#FFDBE4" stroke="#FD8EA9" stroke-width="5"/>
<path d="M96.7804 83.3785C86.5179 91.1944 76.3836 81.7605 70.8436 73.5331C69.1797 71.0622 66.3964 69.6024 63.6054 68.5614C58.1666 66.5327 54.305 60.3102 64.8046 45.3785C81.6807 21.3785 98.5569 27.3785 104.774 31.3785C110.992 35.3785 111.88 71.8785 96.7804 83.3785Z" fill="#FFDBE4" stroke="#FD8EA9" stroke-width="5"/>
<path d="M73.0465 62.0093C72.6799 66.1371 69.2218 69.3015 65.0779 69.3015L57.5143 69.3015C53.3703 69.3015 49.9123 66.1371 49.5456 62.0093L48.7463 53.0093C48.3306 48.3301 52.0172 44.3015 56.7149 44.3015L65.8772 44.3015C70.5749 44.3015 74.2615 48.3301 73.8459 53.0093L73.0465 62.0093Z" fill="#FFDBE4" stroke="#FD8EA9" stroke-width="5"/>
<path d="M24.2196 68.7277C34.4821 76.5436 44.6163 67.1097 50.1564 58.8823C51.8203 56.4114 54.6035 54.9516 57.3946 53.9106C62.8334 51.8819 66.695 45.6594 56.1954 30.7277C39.3193 6.72765 22.4431 12.7277 16.2256 16.7277C10.0081 20.7277 9.11988 57.2277 24.2196 68.7277Z" fill="#C2E9FF" stroke="#299EDF" stroke-width="5"/>
<path d="M96.7804 68.7277C86.5179 76.5436 76.3836 67.1097 70.8436 58.8823C69.1797 56.4114 66.3964 54.9516 63.6054 53.9106C58.1666 51.8819 54.305 45.6594 64.8046 30.7277C81.6807 6.72766 98.5569 12.7277 104.774 16.7277C110.992 20.7277 111.88 57.2277 96.7804 68.7277Z" fill="#C2E9FF" stroke="#299EDF" stroke-width="5"/>
<path d="M73.0465 47.3585C72.6799 51.4863 69.2218 54.6508 65.0779 54.6508L57.5143 54.6508C53.3703 54.6508 49.9123 51.4863 49.5456 47.3585L48.7463 38.3585C48.3306 33.6793 52.0172 29.6508 56.7149 29.6508L65.8772 29.6508C70.5749 29.6508 74.2615 33.6793 73.8459 38.3585L73.0465 47.3585Z" fill="#C2E9FF" stroke="#299EDF" stroke-width="5"/>
</svg>
